<svg width="264" height="264" viewBox="0 0 264 264" fill="none" xmlns="http://www.w3.org/2000/svg">
<g clip-path="url(#clip0_3_180)">
<rect width="264" height="264" rx="40" fill="#5500FF"/>
<g clip-path="url(#clip1_3_180)">
<path d="M195.916 160.402V194.875C177.389 194.875 158.931 196.28 141 196C139.36 196 136.612 196.347 136.5 194.875C134.897 169.443 136.456 141.696 158.227 122.674C168.479 113.707 180.781 107.892 195.916 106C195.916 116.054 196.252 125.967 195.581 135.846C195.469 137.562 191.219 139.489 188.535 140.54C164.602 150.033 149.26 164.68 142.923 188.816C155.858 172.316 172.393 162.679 195.916 160.437V160.402Z" fill="url(#paint0_linear_3_180)"/>
<path d="M195.916 160.402V194.875C177.389 194.875 158.931 196.28 141 196C139.36 196 136.612 196.347 136.5 194.875C134.897 169.443 136.456 141.696 158.227 122.674C168.479 113.707 180.781 107.892 195.916 106C195.916 116.054 196.252 125.967 195.581 135.846C195.469 137.562 191.219 139.489 188.535 140.54C164.602 150.033 149.26 164.68 142.923 188.816C155.858 172.316 172.393 162.679 195.916 160.437V160.402Z" fill="white"/>
<path d="M69 105C107.247 108.227 138.003 142.566 128.14 194.972C110.221 194.972 92.0761 195.113 73.9691 194.762C72.3127 194.762 69.4517 191.605 69.3764 189.816C68.9247 180.064 69.1505 170.313 69.1505 160.666C86.0153 158.842 101.734 167.89 122.627 188.972C122.627 186.917 121.815 183.256 120.686 180.696C112.141 161.333 97.6475 147.337 76.6042 139.76C71.0704 137.655 69.3765 135.34 69.0376 129.412C69 119.158 69 113.091 69 105Z" fill="url(#paint1_linear_3_180)"/>
<path d="M69 105C107.247 108.227 138.003 142.566 128.14 194.972C110.221 194.972 92.0761 195.113 73.9691 194.762C72.3127 194.762 69.4517 191.605 69.3764 189.816C68.9247 180.064 69.1505 170.313 69.1505 160.666C86.0153 158.842 101.734 167.89 122.627 188.972C122.627 186.917 121.815 183.256 120.686 180.696C112.141 161.333 97.6475 147.337 76.6042 139.76C71.0704 137.655 69.3765 135.34 69.0376 129.412C69 119.158 69 113.091 69 105Z" fill="white"/>
<path d="M132.142 69.0004C146.3 68.9287 157.657 78.9665 157.993 91.8722C158.329 104.921 146.375 116.142 132.291 115.999C118.432 115.855 107.076 105.28 107.001 92.4457C106.889 79.54 118.133 69.0721 132.142 69.0004Z" fill="url(#paint2_linear_3_180)"/>
<path d="M132.142 69.0004C146.3 68.9287 157.657 78.9665 157.993 91.8722C158.329 104.921 146.375 116.142 132.291 115.999C118.432 115.855 107.076 105.28 107.001 92.4457C106.889 79.54 118.133 69.0721 132.142 69.0004Z" fill="white"/>
</g>
</g>
<defs>
<linearGradient id="paint0_linear_3_180" x1="166" y1="106" x2="166" y2="195" gradientUnits="userSpaceOnUse">
<stop stop-color="#9A68FF"/>
<stop offset="1" stop-color="#5F0FFF"/>
</linearGradient>
<linearGradient id="paint1_linear_3_180" x1="99.5" y1="105" x2="99.5" y2="195" gradientUnits="userSpaceOnUse">
<stop stop-color="#9A68FF"/>
<stop offset="1" stop-color="#5F0FFF"/>
</linearGradient>
<linearGradient id="paint2_linear_3_180" x1="132.5" y1="69" x2="132.5" y2="116" gradientUnits="userSpaceOnUse">
<stop stop-color="#9A68FF"/>
<stop offset="1" stop-color="#5F0FFF"/>
</linearGradient>
<clipPath id="clip0_3_180">
<rect width="264" height="264" rx="40" fill="white"/>
</clipPath>
<clipPath id="clip1_3_180">
<rect width="127" height="126" fill="white" transform="translate(69 69)"/>
</clipPath>
</defs>
</svg>
